<svg height="100%" width="100%" viewBox="0 0 1480 560" xmlns="http://www.w3.org/2000/svg">
    <path d="M 0,560 C 0,560 0,112 0,112 C 76.30854700854701,129.5769230769231 152.61709401709402,147.15384615384616 249,152 C 345.382905982906,156.84615384615384 461.8401709401709,148.96153846153845 531,139 C 600.1598290598291,129.03846153846155 622.0222222222222,116.99999999999999 697,112 C 771.9777777777778,107.00000000000001 900.0709401709403,109.03846153846155 1006,120 C 1111.9290598290597,130.96153846153845 1195.694017094017,150.84615384615384 1271,151 C 1346.305982905983,151.15384615384616 1413.1529914529915,131.5769230769231 1480,112 C 1480,112 1480,560 1480,560 Z"
          stroke="none" strokewidth="0" fill="#0052d944"></path>
    <path d="M 0,560 C 0,560 0,224 0,224 C 104.39316239316238,215.53846153846155 208.78632478632477,207.07692307692307 292,211 C 375.21367521367523,214.92307692307693 437.2478632478633,231.23076923076923 510,237 C 582.7521367521367,242.76923076923077 666.2222222222222,238.00000000000003 746,242 C 825.7777777777778,245.99999999999997 901.863247863248,258.7692307692308 993,256 C 1084.136752136752,253.23076923076923 1190.3247863247861,234.9230769230769 1274,227 C 1357.6752136752139,219.0769230769231 1418.837606837607,221.53846153846155 1480,224 C 1480,224 1480,560 1480,560 Z"
          stroke="none" strokewidth="0" fill="#0052d966"></path>
    <path d="M 0,560 C 0,560 0,336 0,336 C 97.65470085470088,357.76666666666665 195.30940170940175,379.53333333333336 261,373 C 326.69059829059825,366.46666666666664 360.417094017094,331.63333333333327 447,320 C 533.582905982906,308.36666666666673 673.0222222222222,319.93333333333334 776,321 C 878.9777777777778,322.06666666666666 945.494017094017,312.6333333333334 1006,312 C 1066.505982905983,311.3666666666666 1121.0017094017096,319.53333333333336 1199,325 C 1276.9982905982904,330.46666666666664 1378.4991452991453,333.23333333333335 1480,336 C 1480,336 1480,560 1480,560 Z"
          stroke="none" strokewidth="0" fill="#0052d999"></path>
    <path d="M 0,560 C 0,560 0,448 0,448 C 95.89059829059829,434.0051282051282 191.78119658119658,420.0102564102564 265,430 C 338.2188034188034,439.9897435897436 388.76581196581196,473.9641025641026 478,473 C 567.234188034188,472.0358974358974 695.1555555555555,436.1333333333333 780,424 C 864.8444444444445,411.8666666666667 906.6119658119658,423.50256410256407 984,435 C 1061.3880341880342,446.49743589743593 1174.3965811965813,457.8564102564103 1263,460 C 1351.6034188034187,462.1435897435897 1415.8017094017093,455.07179487179485 1480,448 C 1480,448 1480,560 1480,560 Z"
          stroke="none" strokewidth="0" fill="#0052d9ff"></path>
</svg>
