<?xml version="1.0" standalone="no"?><!DOCTYPE svg PUBLIC "-//W3C//DTD SVG 1.1//EN" "http://www.w3.org/Graphics/SVG/1.1/DTD/svg11.dtd"><svg t="1718527961500" class="icon" viewBox="0 0 1024 1024" version="1.1" xmlns="http://www.w3.org/2000/svg" p-id="3064" xmlns:xlink="http://www.w3.org/1999/xlink" width="32" height="32"><path d="M512 512c52.8 0 96-43.2 96-96s-43.2-96-96-96c-52.768 0-96 43.2-96 96s43.232 96 96 96z m0-256a160.032 160.032 0 0 1 0 320c-88.32 0-160-71.68-160-160s71.68-160 160-160z m285.792 558.08A414.432 414.432 0 0 0 928 512c0-229.44-186.56-416-416-416S96 282.56 96 512c0 118.72 49.952 226.24 130.272 302.08 4.8-39.04 19.84-72 44.8-98.56C318.432 664.64 397.12 640 512 640c114.912 0 193.632 24.64 240.992 75.52 24.96 26.56 40 59.52 44.8 98.56z m-62.4 48.64v-0.96c3.168-44.48-6.4-78.08-29.12-102.72C672 722.56 606.72 704 512 704c-94.72 0-160 18.56-194.208 55.04-22.72 24.64-32.352 58.24-29.12 102.72v0.96A414.016 414.016 0 0 0 512 928c81.952 0 158.72-24 223.392-65.28zM512 32c264.672 0 480 215.36 480 480s-215.328 480-480 480C247.392 992 32 776.64 32 512S247.392 32 512 32z" fill="#0052d9" p-id="3065"></path></svg>